<svg xmlns="http://www.w3.org/2000/svg" xmlns:xlink="http://www.w3.org/1999/xlink" width="1440" height="1009" viewBox="0 0 1440 1009">
  <defs>
    <rect id="background-a" width="1440" height="1023"/>
    <linearGradient id="background-b" x1="37.775%" x2="45.364%" y1="35.265%" y2="51.935%">
      <stop offset="0%" stop-color="#F6F8FC"/>
      <stop offset="100%" stop-color="#FFF"/>
    </linearGradient>
    <linearGradient id="background-d" x1="59.623%" x2="53.134%" y1="16.735%" y2="38.271%">
      <stop offset="0%" stop-color="#F6F8FC"/>
      <stop offset="100%" stop-color="#FFF"/>
    </linearGradient>
    <linearGradient id="background-e" x1="50%" x2="50%" y1="0%" y2="95.143%">
      <stop offset="0%" stop-color="#0AF"/>
      <stop offset="100%" stop-color="#FFF"/>
    </linearGradient>
    <linearGradient id="background-f" x1="43.491%" x2="50%" y1="24.242%" y2="47.315%">
      <stop offset="0%" stop-color="#F6F8FC"/>
      <stop offset="100%" stop-color="#FFF"/>
    </linearGradient>
    <linearGradient id="background-g" x1="50%" x2="50%" y1="0%" y2="91.414%">
      <stop offset="0%" stop-color="#0AF"/>
      <stop offset="100%" stop-color="#FFF"/>
    </linearGradient>
  </defs>
  <g fill="none" fill-rule="evenodd" transform="translate(0 -14)">
    <mask id="background-c" fill="#fff">
      <use xlink:href="#background-a"/>
    </mask>
    <use fill="#FFF" xlink:href="#background-a"/>
    <path fill="url(#background-b)" d="M837.633572,-303.816367 C731.417619,-318.404051 708.48908,-218.2475 628.806153,-188.778973 C562.729886,-164.342494 471.065394,-194.892272 421.289354,-191.881396 C352.088338,-187.695534 299.65506,-169.202297 244.162512,-125.901512 C161.214204,-61.1770221 185.161903,63.1118116 79.8498556,91.6342632 C28.980652,105.411551 -4.16514978,96.0105256 -77.6728537,110.691276 C-155.984377,126.331432 -216.65116,187.407039 -254.340988,257.640763 C-265.054517,277.605062 -273.477685,298.731962 -282.367901,319.577326 C-283.410016,322.020828 -284.786001,324.803196 -284.076797,327.363898 C-283.724466,328.636049 -281.450066,327.543601 -280.136701,327.633453 L-280.136701,483.700571 L995.800287,483.700571 L837.633572,-303.816367 Z" mask="url(#background-c)" transform="rotate(-6 355.764 89.22)"/>
    <path fill="url(#background-d)" d="M398.1047,-24.932869 C461.528945,-26.8295578 533.23532,-10.8158394 583.365257,30.5486776 C627.017313,66.5679975 629.724577,100.378369 688.088371,118.438959 C716.086518,127.102944 761.169712,127.957328 785.039899,123.738808 C862.55108,110.040446 929.660508,90.3060327 1007.60509,118.602818 C1058.6629,137.138703 1101.99793,161.11757 1141.86239,223.207148 C1181.72686,285.296727 1186.98556,358.50074 1255.38301,415.341772 C1301.27033,453.47599 1357.45097,466.399014 1416.19128,472.006996 C1482.4333,478.331172 1569.74849,472.74209 1627.54375,514.156596 C1667.5708,542.838889 1698.73034,572.597092 1725.07737,614.097248 C1750.57821,654.264542 1766.83649,695.552477 1793.55975,734.890205 C1814.17527,765.237102 1838.67429,788.123213 1869.16941,808.273762 C1914.15349,837.99832 1885.65969,826.326344 1911,849.172935 L1911,1117 L-287,1117 L-287,-47 L398.1047,-24.932869 Z" mask="url(#background-c)" transform="matrix(-1 0 0 1 1624 0)"/>
    <rect width="8" height="200" x="1126.539" y="357.539" fill="url(#background-e)" mask="url(#background-c)" opacity=".2" rx="4" transform="rotate(-45 1130.54 457.54)"/>
    <rect width="8" height="200" x="535.539" y="139.539" fill="url(#background-e)" mask="url(#background-c)" opacity=".2" rx="4" transform="rotate(-45 539.54 239.54)"/>
    <path fill="url(#background-f)" d="M1773.63357,245.183633 C1667.41762,230.595949 1644.48908,330.7525 1564.80615,360.221027 C1498.72989,384.657506 1407.06539,354.107728 1357.28935,357.118604 C1288.08834,361.304466 1235.65506,379.797703 1180.16251,423.098488 C1097.2142,487.822978 1121.1619,612.111812 1015.84986,640.634263 C964.980652,654.411551 931.83485,645.010526 858.327146,659.691276 C780.015623,675.331432 719.34884,736.407039 681.659012,806.640763 C670.945483,826.605062 662.522315,847.731962 653.632099,868.577326 C652.589984,871.020828 651.213999,873.803196 651.923203,876.363898 C652.275534,877.636049 654.549934,876.543601 655.863299,876.633453 L655.863299,1032.70057 L1931.80029,1032.70057 L1773.63357,245.183633 Z" mask="url(#background-c)" transform="rotate(-6 1291.764 638.22)"/>
    <rect width="8" height="200" x="296.539" y="426.539" fill="url(#background-e)" mask="url(#background-c)" opacity=".2" rx="4" transform="rotate(-45 300.54 526.54)"/>
    <rect width="8" height="200" x="278.539" y="343.539" fill="url(#background-e)" mask="url(#background-c)" opacity=".453" rx="4" transform="rotate(-45 282.54 443.54)"/>
    <rect width="8" height="150" x="1029.861" y="660.861" fill="url(#background-e)" mask="url(#background-c)" opacity=".453" rx="4" transform="rotate(-45 1033.861 735.861)"/>
    <rect width="8" height="150" x="1207.861" y="398.861" fill="url(#background-g)" mask="url(#background-c)" opacity=".453" rx="4" transform="rotate(-45 1211.861 473.861)"/>
  </g>
</svg>
