<svg xmlns="http://www.w3.org/2000/svg" width="29" height="26" viewBox="0 0 29 26">
  <path fill="#0AF" fill-rule="evenodd" d="M5.24157143,11.5751571 L9.98585714,13.3923 C10.3287143,13.5208714 10.5858571,13.8080143 10.6758571,14.1594429 L11.2801429,16.4394429 C11.3058571,16.1737286 11.4258571,15.9294429 11.6187143,15.7451571 L23.4987143,4.31515714 L5.24157143,11.5751571 Z M11.4858571,17.2108714 L12.3387143,20.4594429 L14.1858571,19.1308714 L11.7687143,17.4937286 C11.6572857,17.4165857 11.5587143,17.3223 11.4858571,17.2108714 Z M16.8087143,18.1794429 L23.2072857,22.5208714 L26.6572857,4.40944286 L14.1901429,16.4051571 L16.7787143,18.1580143 C16.7872857,18.1623 16.8001429,18.1708714 16.8087143,18.1794429 Z M23.9958571,25.5508714 C23.773,25.5508714 23.5501429,25.4823 23.3615714,25.3537286 L16.1787143,20.4808714 L12.3258571,23.2580143 C12.0258571,23.4723 11.6358571,23.5280143 11.2844286,23.4037286 C10.933,23.2751571 10.6672857,22.9837286 10.573,22.6237286 L8.63585714,15.2951571 L1.72728571,12.6551571 C1.29014286,12.4880143 1.003,12.0680143 0.998714286,11.6051571 C0.998714286,11.1380143 1.28157143,10.7180143 1.71442857,10.5465857 L27.9901429,0.0894428571 C28.1101429,0.0423 28.2387143,0.0123 28.363,0.00372857143 C28.4101429,-0.000557142857 28.4572857,-0.000557142857 28.5001429,0.00372857143 C28.7658571,0.0208714286 29.023,0.123728571 29.2244286,0.325157143 C29.2458571,0.3423 29.2672857,0.363728571 29.2844286,0.389442857 C29.4515714,0.578014286 29.5415714,0.809442857 29.563,1.04944286 C29.5672857,1.10944286 29.563,1.16515714 29.5587143,1.22944286 C29.5544286,1.2723 29.5501429,1.31087143 29.5415714,1.35801429 L25.1058571,24.6337286 C25.033,25.0065857 24.7801429,25.3194429 24.4287143,25.4608714 C24.2872857,25.5208714 24.1415714,25.5508714 23.9958571,25.5508714 Z" transform="translate(-1)"/>
</svg>
