<?xml version="1.0" encoding="UTF-8"?>
<svg xmlns="http://www.w3.org/2000/svg" xmlns:xlink="http://www.w3.org/1999/xlink" width="395pt" height="60pt" viewBox="0 0 395 60" version="1.1">
<g id="surface1">
<path style=" stroke:none;fill-rule:nonzero;fill:rgb(7.843137%,7.843137%,7.843137%);fill-opacity:1;" d="M 86.59375 46.136719 C 82.175781 41.714844 79.9375 36.265625 79.9375 29.789062 C 79.9375 23.3125 82.175781 17.800781 86.660156 13.261719 C 91.144531 8.722656 96.707031 6.476562 103.242188 6.476562 C 109.777344 6.476562 115.289062 8.71875 119.769531 13.261719 C 124.199219 17.554688 126.652344 23.488281 126.546875 29.65625 C 126.546875 36.074219 124.308594 41.519531 119.769531 46.003906 C 115.230469 50.484375 109.78125 52.726562 103.183594 52.726562 C 96.585938 52.726562 91.015625 50.554688 86.59375 46.136719 Z M 113.167969 19.4375 C 110.535156 16.800781 106.964844 15.316406 103.238281 15.316406 C 99.515625 15.316406 95.945312 16.800781 93.3125 19.4375 C 90.589844 22.160156 89.257812 25.613281 89.257812 29.667969 C 89.257812 33.722656 90.589844 37.117188 93.253906 39.839844 C 98.8125 45.246094 107.667969 45.246094 113.226562 39.839844 C 115.949219 37.117188 117.28125 33.726562 117.222656 29.667969 C 117.238281 25.546875 115.890625 22.160156 113.167969 19.4375 Z M 113.167969 19.4375 "/>
<path style=" stroke:none;fill-rule:evenodd;fill:rgb(7.843137%,7.843137%,7.843137%);fill-opacity:1;" d="M 154.503906 19.011719 L 163.882812 19.011719 L 149.535156 51.949219 L 143.003906 51.949219 L 128.714844 19.011719 L 138.09375 19.011719 L 146.390625 40.382812 Z M 154.503906 19.011719 "/>
<path style=" stroke:none;fill-rule:nonzero;fill:rgb(7.843137%,7.843137%,7.843137%);fill-opacity:1;" d="M 198.261719 38.507812 L 173.503906 38.507812 C 174.714844 43.167969 177.925781 45.53125 183.132812 45.53125 C 186.921875 45.425781 190.609375 44.273438 193.785156 42.203125 L 197.171875 48.195312 C 192.988281 51.230469 187.933594 52.820312 182.765625 52.734375 C 176.957031 52.734375 172.539062 51.054688 169.449219 47.691406 C 166.363281 44.328125 164.855469 40.246094 164.855469 35.464844 C 164.855469 30.421875 166.425781 26.320312 169.632812 23.050781 C 172.835938 19.78125 176.957031 18.144531 182.039062 18.144531 C 186.824219 18.144531 190.820312 19.660156 193.902344 22.628906 C 196.988281 25.59375 198.5625 29.59375 198.5625 34.738281 C 198.546875 36 198.445312 37.257812 198.261719 38.507812 Z M 173.503906 32.148438 L 190.273438 32.148438 C 189.488281 27.851562 186.398438 25.246094 182.039062 25.246094 C 177.75 25.246094 174.535156 27.851562 173.503906 32.148438 Z M 173.503906 32.148438 "/>
<path style=" stroke:none;fill-rule:evenodd;fill:rgb(7.843137%,7.843137%,7.843137%);fill-opacity:1;" d="M 204.433594 52.007812 L 204.433594 19.011719 L 212.628906 19.011719 L 212.628906 23.429688 C 214.625 19.855469 217.648438 18.105469 221.703125 18.105469 C 223.070312 18.109375 224.421875 18.355469 225.699219 18.832031 L 224.972656 27.003906 C 223.703125 26.589844 222.375 26.367188 221.039062 26.339844 C 216.195312 26.339844 212.988281 29.488281 212.988281 36.324219 L 212.988281 52.007812 Z M 204.433594 52.007812 "/>
<path style=" stroke:none;fill-rule:nonzero;fill:rgb(7.843137%,7.843137%,7.843137%);fill-opacity:1;" d="M 260.238281 23.191406 C 263.386719 26.519531 264.960938 30.636719 264.957031 35.539062 C 264.953125 40.445312 263.382812 44.5625 260.238281 47.894531 C 257.089844 51.160156 253.15625 52.796875 248.496094 52.796875 C 244.320312 52.796875 240.933594 51.160156 238.207031 47.894531 L 238.207031 52.007812 L 229.914062 52.007812 L 229.914062 6.476562 L 238.449219 6.476562 L 238.449219 22.824219 C 241.171875 19.738281 244.5 18.164062 248.496094 18.164062 C 252.949219 18.078125 257.222656 19.910156 260.238281 23.191406 Z M 240.625 42.261719 C 242.355469 44.003906 244.707031 44.984375 247.164062 44.984375 C 249.617188 44.984375 251.96875 44.003906 253.699219 42.261719 C 255.378906 40.410156 256.285156 37.980469 256.21875 35.480469 C 256.296875 32.996094 255.390625 30.578125 253.699219 28.753906 C 252.019531 26.945312 249.632812 25.953125 247.164062 26.03125 C 244.5 26.03125 242.320312 26.941406 240.625 28.816406 C 238.949219 30.621094 238.042969 33.011719 238.105469 35.476562 C 238.042969 37.976562 238.945312 40.40625 240.625 42.261719 Z M 240.625 42.261719 "/>
<path style=" stroke:none;fill-rule:evenodd;fill:rgb(7.843137%,7.843137%,7.843137%);fill-opacity:1;" d="M 279.101562 52.007812 L 270.566406 52.007812 L 270.566406 6.476562 L 279.101562 6.476562 Z M 279.101562 52.007812 "/>
<path style=" stroke:none;fill-rule:nonzero;fill:rgb(7.843137%,7.843137%,7.843137%);fill-opacity:1;" d="M 289.609375 23.191406 C 292.9375 19.796875 297.175781 18.101562 302.320312 18.105469 C 307.46875 18.105469 311.703125 19.800781 315.03125 23.191406 C 318.363281 26.519531 319.996094 30.632812 319.996094 35.480469 C 319.996094 40.328125 318.363281 44.5 315.03125 47.832031 C 311.695312 51.160156 307.464844 52.875 302.320312 52.875 C 297.179688 52.875 292.9375 51.195312 289.609375 47.832031 C 286.28125 44.46875 284.648438 40.382812 284.648438 35.480469 C 284.648438 30.578125 286.277344 26.519531 289.609375 23.191406 Z M 302.320312 44.925781 C 304.769531 44.980469 307.125 43.992188 308.796875 42.203125 C 310.535156 40.398438 311.488281 37.980469 311.460938 35.476562 C 311.5 32.988281 310.542969 30.589844 308.796875 28.816406 C 307.125 27.027344 304.769531 26.035156 302.320312 26.089844 C 299.855469 26.035156 297.480469 27.023438 295.785156 28.816406 C 294.054688 30.59375 293.117188 32.996094 293.183594 35.476562 C 293.128906 37.972656 294.0625 40.390625 295.785156 42.203125 C 297.480469 43.992188 299.855469 44.984375 302.320312 44.925781 Z M 302.320312 44.925781 "/>
<path style=" stroke:none;fill-rule:evenodd;fill:rgb(7.843137%,7.843137%,7.843137%);fill-opacity:1;" d="M 329.132812 47.894531 C 325.863281 44.683594 324.226562 40.503906 324.226562 35.480469 C 324.226562 30.457031 325.863281 26.277344 329.191406 23.070312 C 332.519531 19.796875 336.753906 18.164062 341.964844 18.164062 C 348.6875 18.164062 354.613281 21.496094 357.335938 27.367188 L 350.496094 31.105469 C 348.5 27.777344 345.65625 26.0625 342.089844 26.0625 C 339.566406 25.980469 337.125 26.96875 335.367188 28.785156 C 333.605469 30.546875 332.644531 32.957031 332.707031 35.449219 C 332.707031 38.171875 333.546875 40.410156 335.308594 42.226562 C 337.050781 43.980469 339.433594 44.945312 341.90625 44.894531 C 345.355469 44.894531 348.863281 42.832031 350.308594 39.929688 L 357.210938 43.984375 C 354.367188 49.308594 348.496094 52.703125 341.71875 52.703125 C 336.589844 52.734375 332.386719 51.101562 329.132812 47.894531 Z M 329.132812 47.894531 "/>
<path style=" stroke:none;fill-rule:evenodd;fill:rgb(7.843137%,7.843137%,7.843137%);fill-opacity:1;" d="M 384.144531 52.007812 L 373.253906 37.902344 L 371.015625 39.898438 L 371.015625 52.007812 L 362.480469 52.007812 L 362.480469 6.476562 L 371.015625 6.476562 L 371.015625 30.265625 L 383 19.003906 L 393.773438 19.003906 L 379.066406 32.503906 L 394.613281 52 Z M 384.144531 52.007812 "/>
<path style=" stroke:none;fill-rule:evenodd;fill:rgb(0%,66.666667%,100%);fill-opacity:1;" d="M 9.972656 59.472656 L 9.972656 9.84375 L 34.234375 9.84375 L 34.234375 42.539062 L 43.828125 42.539062 L 43.828125 0.210938 L 9.972656 0.210938 C 4.675781 0.210938 0.382812 4.503906 0.382812 9.800781 L 0.382812 49.878906 C 0.382812 55.175781 4.675781 59.472656 9.972656 59.472656 Z M 9.972656 59.472656 "/>
<path style=" stroke:none;fill-rule:evenodd;fill:rgb(0%,66.666667%,100%);fill-opacity:1;" d="M 60.753906 49.878906 L 60.753906 9.804688 C 60.753906 4.507812 56.460938 0.207031 51.160156 0.207031 L 51.160156 49.835938 L 26.894531 49.835938 L 26.894531 17.140625 L 17.308594 17.140625 L 17.308594 59.46875 L 51.160156 59.46875 C 56.457031 59.46875 60.753906 55.175781 60.753906 49.878906 Z M 60.753906 49.878906 "/>
</g>
</svg>
